<?xml version="1.0" standalone="no"?>
<!DOCTYPE svg PUBLIC "-//W3C//DTD SVG 20010904//EN"
 "http://www.w3.org/TR/2001/REC-SVG-20010904/DTD/svg10.dtd">
<svg version="1.0" xmlns="http://www.w3.org/2000/svg"
 width="1080.000000pt" height="1080.000000pt" viewBox="0 0 1080.000000 1080.000000"
 preserveAspectRatio="xMidYMid meet">

<g transform="translate(0.000000,1080.000000) scale(0.100000,-0.100000)"
fill="#000000" stroke="none">
<path d="M0 5400 l0 -5400 5400 0 5400 0 0 5400 0 5400 -5400 0 -5400 0 0
-5400z m5214 4248 c12 -29 44 -76 69 -104 l47 -51 162 -6 c280 -9 534 -59 823
-160 277 -98 465 -346 465 -614 l0 -88 34 -19 c57 -31 136 -101 176 -158 64
-89 82 -148 87 -273 9 -255 7 -471 -5 -520 -7 -27 -20 -104 -28 -170 -8 -66
-28 -161 -44 -211 -16 -50 -32 -114 -36 -143 -4 -28 -11 -54 -15 -57 -14 -8
-10 25 12 106 22 85 18 144 -12 163 -14 9 -19 23 -19 54 0 24 4 43 9 43 5 0
12 27 16 60 4 38 16 73 31 96 20 29 22 39 13 56 -8 14 -9 45 -4 92 4 39 7 78
7 86 -1 8 -1 26 -2 40 0 14 0 34 0 45 0 11 -2 37 -6 57 -3 21 -3 46 2 55 4 10
9 65 10 123 4 153 -17 178 -102 119 -65 -45 -164 -99 -180 -99 -34 0 5 31 94
75 107 53 130 70 142 101 10 25 -17 94 -36 94 -7 0 -15 11 -18 24 -5 19 -11
23 -28 19 -13 -3 -32 -13 -42 -22 -18 -15 -19 -15 -12 19 l6 34 -36 -34 c-20
-19 -35 -28 -32 -20 19 55 20 65 7 53 -22 -21 -28 -15 -22 22 6 37 -6 46 -27
20 -7 -9 -18 -14 -24 -12 -6 3 -21 -5 -33 -16 l-23 -20 0 27 c0 26 -1 26 -17
10 -25 -25 -27 -3 -3 62 11 32 20 67 20 79 1 20 1 20 15 1 12 -16 15 -17 15
-4 0 8 3 30 6 47 4 20 3 31 -5 31 -6 0 -11 -10 -11 -22 0 -45 -11 -8 -20 73
-9 72 -25 138 -47 199 -3 8 1 6 10 -5 8 -11 24 -50 36 -87 15 -45 28 -68 38
-68 13 0 15 9 10 52 -4 28 -15 69 -26 91 -11 22 -17 45 -14 51 4 6 -1 5 -10
-3 -15 -11 -17 -11 -17 1 0 17 -87 115 -95 107 -2 -3 9 -32 26 -65 l30 -59
-42 45 c-24 25 -42 50 -40 55 1 6 -1 7 -5 3 -4 -4 -19 1 -34 12 l-27 19 5 -24
c4 -22 1 -25 -29 -26 -38 -2 -35 -2 -79 6 -28 5 -30 4 -20 -14 8 -15 6 -37 -6
-86 -16 -65 -17 -66 -60 -77 -35 -10 -44 -17 -44 -34 0 -39 -32 -41 -75 -4
-11 10 -30 21 -42 24 -19 6 -24 2 -36 -39 -7 -25 -17 -47 -22 -47 -6 -1 -28
25 -50 58 -22 32 -80 101 -130 152 -49 51 -92 96 -95 99 -3 3 6 3 20 -1 14 -4
35 -7 48 -7 13 1 21 -3 18 -8 -3 -5 7 -11 22 -14 15 -3 29 -1 30 4 8 20 70 8
117 -22 62 -39 99 -48 91 -21 -9 27 21 82 45 82 10 0 19 -4 19 -10 0 -12 40
-13 57 -2 13 8 6 52 -8 52 -5 0 -6 6 -3 14 7 19 -61 49 -96 42 -18 -3 -30 -1
-33 8 -5 13 -71 36 -104 36 -11 0 -25 -11 -31 -25 -13 -29 -20 -30 -69 -10
-47 20 -50 19 -27 -7 46 -53 50 -60 29 -57 -11 2 -26 0 -34 -5 -10 -7 -12 -6
-6 4 6 9 4 11 -4 6 -7 -5 -10 -15 -7 -23 6 -14 4 -14 -16 0 -13 8 -42 33 -66
56 -24 22 -53 42 -65 43 -12 1 -42 2 -67 3 -25 1 -105 6 -177 10 -73 4 -133 5
-133 2 0 -3 43 -26 95 -51 52 -24 95 -47 95 -50 0 -6 1 -6 -110 32 -109 38
-137 44 -145 32 -4 -6 -12 -10 -18 -9 -7 1 -33 1 -59 0 -60 -1 -62 -19 -6 -46
23 -11 67 -35 98 -54 30 -18 100 -57 155 -85 93 -48 182 -113 170 -124 -2 -3
-29 14 -59 37 -30 22 -60 41 -66 41 -5 0 -10 4 -10 10 0 5 -7 7 -15 4 -8 -3
-29 -1 -46 5 -30 10 -29 9 15 -31 84 -73 168 -168 198 -222 7 -14 7 -17 -2
-11 -7 5 -11 1 -10 -11 4 -33 1 -35 -26 -18 -14 9 -35 17 -47 18 -12 1 -62 27
-112 59 -49 32 -115 74 -145 93 l-55 35 40 -8 c100 -18 125 -2 74 47 -92 87
-135 110 -267 141 -93 21 -157 25 -168 8 -12 -21 140 -148 251 -209 33 -18 78
-46 100 -62 22 -16 76 -53 120 -83 81 -55 167 -136 178 -167 8 -23 -5 -23 -45
2 -44 27 -54 25 -34 -5 14 -22 15 -28 3 -39 -11 -12 -22 -7 -69 28 -31 22 -82
58 -115 79 -32 20 -89 60 -128 87 -38 27 -83 56 -100 65 -48 24 -7 17 95 -15
52 -16 96 -28 98 -26 4 5 -98 68 -218 136 -52 30 -98 58 -102 64 -4 6 -10 7
-14 4 -10 -11 -119 69 -149 108 -14 19 -30 58 -36 87 -5 28 -12 63 -15 77 l-5
25 123 -3 c179 -5 448 18 521 43 23 8 62 15 87 15 77 0 150 12 143 23 -4 6 5
8 25 4 50 -10 37 0 -22 17 -29 9 -86 29 -127 46 -40 16 -75 28 -76 26 -6 -5
150 -81 160 -78 5 1 6 -2 3 -6 -5 -8 -88 2 -203 26 -28 6 -43 6 -46 -1 -2 -6
-19 6 -38 25 -42 41 -94 176 -83 211 6 20 5 20 -10 8 -52 -43 -66 -160 -28
-243 24 -55 21 -59 -13 -20 -22 24 -24 25 -25 7 -1 -18 -2 -17 -15 5 -30 52
-12 139 49 239 48 78 68 80 100 9z m-526 -154 c12 -8 22 -22 22 -30 0 -18 -14
-18 -29 0 -17 20 -72 26 -102 10 -41 -21 -127 -122 -160 -189 -16 -33 -39
-100 -51 -150 -12 -49 -25 -91 -30 -93 -4 -2 -8 -15 -8 -28 0 -20 -5 -24 -29
-24 -20 0 -32 6 -36 19 -5 17 -9 17 -61 5 -44 -10 -61 -10 -75 -1 -11 7 -19
16 -19 21 0 16 -31 -17 -57 -61 -22 -38 -24 -48 -15 -83 12 -49 6 -52 -14 -5
-8 20 -12 47 -8 63 l6 27 -16 -22 c-9 -13 -24 -37 -32 -55 -9 -18 -24 -49 -35
-68 -10 -19 -19 -52 -19 -73 0 -51 -14 -39 -41 33 -19 53 -24 58 -40 49 -26
-14 -69 -83 -65 -106 2 -10 6 -38 10 -63 5 -38 17 -56 69 -111 34 -35 81 -81
103 -101 69 -60 60 -61 -33 -5 -103 62 -169 91 -178 77 -4 -6 -8 -46 -9 -89
-2 -43 -6 -83 -10 -89 -4 -6 -1 -32 5 -57 10 -39 16 -47 41 -52 15 -3 38 -18
49 -34 19 -27 19 -31 5 -136 -25 -181 -26 -215 -7 -210 16 4 16 -1 3 -57 -19
-85 -21 -126 -5 -126 21 0 15 -22 -14 -52 -15 -15 -21 -28 -15 -28 7 0 12 5
12 10 0 6 6 10 14 10 8 0 23 -23 35 -54 18 -48 19 -65 11 -173 -4 -66 -14
-130 -21 -141 -10 -16 -11 -31 -2 -69 7 -26 14 -64 17 -83 l5 -35 -10 35 c-70
229 -79 270 -89 405 -6 77 -15 167 -21 200 -5 33 -9 148 -8 255 1 107 1 205 1
217 -1 14 -26 39 -71 72 -72 54 -111 111 -111 163 0 31 23 52 48 43 18 -5 20
1 27 73 8 89 7 87 213 351 142 181 216 234 377 267 85 17 111 34 147 94 45 75
161 219 196 244 42 30 96 34 130 10z m1122 -344 c0 -5 -2 -10 -4 -10 -3 0 -8
5 -11 10 -3 6 -1 10 4 10 6 0 11 -4 11 -10z m-1066 -147 c28 -29 45 -53 39
-53 -7 0 -23 12 -35 26 -13 14 -34 37 -48 52 -31 33 -60 74 -60 85 0 5 12 -6
27 -25 14 -18 49 -57 77 -85z m990 -47 c14 5 95 -77 97 -98 1 -7 2 -35 3 -61
l1 -48 -39 43 c-82 91 -163 174 -206 211 l-45 38 88 -45 c49 -25 94 -43 101
-40z m82 11 c29 -34 58 -96 50 -104 -2 -3 -13 3 -24 13 -29 28 -122 146 -122
155 0 14 69 -32 96 -64z m-1112 34 c-2 -3 -12 3 -22 13 -16 17 -16 18 5 5 12
-7 20 -15 17 -18z m2064 -640 c-7 -12 -19 -21 -27 -21 -10 0 -7 8 9 25 27 29
37 27 18 -4z m-212 -83 c36 -39 134 -172 134 -182 0 -4 17 -33 38 -64 66 -97
66 -99 73 -242 4 -74 14 -164 24 -200 9 -36 25 -146 35 -245 20 -187 45 -306
76 -353 l18 -27 7 35 c4 19 12 60 17 90 5 30 22 99 38 152 27 94 29 98 63 109
19 7 76 12 126 12 136 0 218 -43 267 -137 30 -58 48 -177 41 -269 l-6 -78 35
-29 c24 -20 48 -58 78 -125 l43 -96 21 20 c48 43 187 26 226 -29 34 -47 52
-111 53 -185 1 -59 -2 -76 -22 -103 -13 -18 -26 -31 -29 -28 -2 3 0 11 5 18 6
7 10 33 10 58 0 25 -2 37 -5 28 -2 -10 -7 -18 -12 -18 -4 0 -3 18 2 41 8 29 8
43 -1 52 -8 8 -11 1 -12 -29 -2 -30 -3 -33 -6 -11 -2 15 -8 25 -13 22 -5 -3
-12 5 -15 17 -10 32 -35 58 -70 72 -16 7 -38 23 -49 34 -18 20 -18 21 8 46 16
17 20 26 11 26 -45 0 -92 -49 -146 -150 -19 -36 -29 -44 -46 -42 -13 2 -23 10
-23 19 0 9 -3 13 -7 10 -16 -17 -79 142 -68 176 11 37 14 67 8 67 -5 0 -19
-22 -32 -50 -13 -27 -49 -87 -80 -132 -55 -80 -59 -83 -126 -109 -151 -57
-140 -48 -158 -141 -35 -188 -110 -325 -260 -474 -152 -151 -449 -332 -611
-374 -39 -10 -72 -17 -73 -16 -1 1 44 24 100 50 214 100 244 117 309 170 37
30 75 60 85 68 32 24 130 142 155 188 36 66 41 104 18 125 -11 10 -20 15 -20
12 0 -3 -16 1 -35 9 -29 12 -35 12 -35 1 0 -10 -32 -17 -120 -27 -66 -7 -120
-16 -120 -20 0 -4 -25 -10 -55 -13 -30 -3 -62 -13 -71 -21 -8 -9 -21 -16 -28
-16 -7 0 -33 -16 -57 -35 -24 -19 -48 -35 -53 -35 -5 0 -22 -13 -38 -30 -15
-16 -35 -30 -43 -30 -8 0 -15 -4 -15 -8 0 -5 -26 -26 -57 -48 -32 -21 -63 -44
-70 -50 -6 -6 -25 -17 -42 -24 -17 -7 -31 -16 -31 -21 0 -5 -7 -9 -16 -9 -8 0
-22 -7 -30 -15 -22 -21 -64 -20 -65 3 -2 38 3 78 13 89 19 24 -20 26 -89 5
-148 -44 -209 -54 -308 -54 -138 1 -279 44 -393 120 -76 51 -125 81 -139 88
-7 3 -10 10 -7 15 3 5 -3 9 -12 9 -10 0 -25 7 -33 14 -13 12 -29 13 -74 7 -32
-4 -60 -4 -63 0 -2 4 -17 10 -32 14 -16 3 -44 19 -63 36 -19 16 -38 33 -44 38
-24 20 -87 96 -100 121 -8 16 -18 30 -22 32 -5 1 -30 45 -57 97 -29 55 -67
111 -94 137 -25 24 -47 44 -49 44 -2 0 -19 10 -36 23 -18 12 -39 23 -47 25 -8
2 -20 10 -26 18 -6 7 -21 14 -33 14 -11 0 -21 5 -21 10 0 13 -71 13 -104 0
-133 -50 -157 -329 -49 -545 43 -84 83 -135 189 -241 81 -81 226 -194 249
-194 2 0 25 -13 50 -29 26 -16 91 -48 146 -72 54 -23 98 -43 97 -45 -2 -1 -46
9 -98 22 -96 25 -290 116 -380 177 -103 71 -226 186 -311 291 -85 105 -159
264 -189 409 -6 32 -17 60 -23 61 -71 18 -177 71 -177 88 0 5 8 8 19 8 21 0
111 76 111 93 0 6 11 21 24 32 20 17 52 70 112 186 15 29 7 65 -37 166 -12 29
-20 56 -16 60 9 8 36 -27 37 -47 0 -8 9 -32 20 -53 11 -20 20 -45 20 -54 1
-33 124 123 148 187 18 48 42 186 57 338 12 118 22 170 45 228 16 41 31 101
35 132 20 200 39 246 107 261 72 17 99 -39 87 -179 -4 -46 -5 -88 -3 -92 2 -3
0 -9 -6 -13 -5 -3 -10 -17 -10 -30 0 -28 -27 -103 -46 -125 -6 -8 -19 -42 -27
-75 -77 -303 -94 -403 -78 -443 11 -26 18 -30 64 -35 59 -6 131 3 166 22 21
12 26 11 38 -5 12 -16 13 -15 14 17 1 19 1 38 0 43 -6 30 25 170 47 215 33 68
112 155 166 184 35 19 57 22 151 22 122 0 157 -11 219 -69 84 -78 127 -187
126 -321 0 -49 -4 -108 -10 -130 -5 -22 -10 -44 -10 -48 0 -11 59 33 89 67 14
15 34 37 44 47 9 10 17 24 17 29 0 6 4 10 8 10 15 0 33 77 39 163 5 71 2 94
-22 170 -44 144 -75 188 -204 290 -126 99 -174 119 -296 125 -82 4 -115 0
-178 -17 -42 -11 -79 -21 -82 -21 -7 0 17 42 35 60 8 8 20 24 26 35 6 11 13
18 15 15 3 -3 23 9 44 25 73 55 154 85 230 85 22 0 92 10 155 21 63 12 147 25
185 29 132 15 290 42 330 55 68 23 167 62 235 93 87 40 197 54 460 57 159 2
225 7 255 18 47 17 72 8 121 -45z m-2106 -458 c0 -5 -5 -10 -11 -10 -5 0 -7 5
-4 10 3 6 8 10 11 10 2 0 4 -4 4 -10z m-1449 -210 c36 0 69 -16 69 -33 0 -7
-24 -36 -54 -65 l-54 -54 -32 48 c-30 43 -31 48 -17 59 10 7 17 15 17 19 0 4
8 19 17 33 15 22 19 24 21 10 2 -11 13 -17 33 -17z m649 -270 c13 -8 12 -10
-2 -10 -10 0 -18 -4 -18 -10 0 -5 -6 -10 -14 -10 -8 0 -19 -13 -25 -30 -11
-34 -23 -36 -99 -19 -45 11 -53 10 -86 -11 -76 -46 -116 -201 -84 -328 6 -26
18 -57 25 -69 11 -17 12 -26 3 -44 -9 -16 -14 -18 -20 -9 -17 28 -33 -32 -27
-104 4 -57 1 -80 -14 -114 -21 -46 -57 -88 -67 -77 -9 9 -8 204 1 248 5 23 24
56 48 82 l39 43 -12 71 c-26 154 43 335 146 382 45 20 179 26 206 9z m4383
-444 c6 -16 -16 -40 -26 -29 -4 3 -7 15 -7 25 0 21 25 24 33 4z m-4978 -239
c27 -20 13 -62 -25 -76 -17 -5 -37 -8 -44 -5 -7 3 -16 -2 -20 -12 -4 -11 -2
-15 8 -11 10 4 20 -5 31 -25 16 -33 21 -64 5 -37 -6 11 -18 15 -35 11 -15 -2
-25 0 -25 7 0 31 -20 -5 -30 -55 -15 -72 -20 -66 -11 14 7 56 0 81 -12 50 -3
-7 -6 -1 -6 15 -1 30 -15 36 -25 11 -3 -9 -6 -43 -7 -77 -1 -80 -10 -109 -28
-98 -21 13 -10 158 15 202 32 55 98 99 148 99 23 0 50 -6 61 -13z m4545 -328
c12 -22 19 -46 17 -52 -4 -10 -47 73 -47 89 0 14 12 -1 30 -37z m-4416 25 c9
-3 16 -17 16 -30 0 -19 -5 -24 -25 -24 -25 0 -31 13 -19 44 7 18 7 18 28 10z
m4693 -26 c-3 -7 -5 -2 -5 12 0 14 2 19 5 13 2 -7 2 -19 0 -25z m-5149 -30
c-2 -42 -7 -54 -22 -56 -24 -5 -37 16 -29 48 9 40 22 60 39 60 12 0 14 -11 12
-52z m202 -43 c5 -14 3 -38 -6 -65 -8 -23 -12 -51 -9 -61 4 -11 2 -19 -5 -19
-16 0 -24 30 -11 43 15 15 14 67 -2 86 -26 30 -59 91 -50 91 5 0 20 -21 33
-47 13 -26 25 -42 28 -35 2 7 -3 24 -12 37 -9 13 -16 32 -16 42 0 19 34 -30
50 -72z m4800 70 c0 -8 -4 -15 -9 -15 -5 0 -11 7 -15 15 -3 9 0 15 9 15 8 0
15 -7 15 -15z m-4651 -100 c10 -33 19 -85 20 -115 0 -30 5 -71 11 -90 5 -19
10 -43 10 -53 0 -14 -3 -15 -13 -5 -8 7 -12 20 -9 30 2 10 -3 36 -12 58 -10
26 -14 54 -10 83 5 33 0 57 -20 104 -14 35 -26 68 -26 75 1 26 31 -28 49 -87z
m4775 86 c3 -5 0 -14 -8 -20 -29 -24 -7 -241 25 -241 5 0 9 -7 9 -15 0 -13 -3
-13 -20 -3 -11 7 -20 21 -20 30 0 25 -14 22 -33 -4 -13 -19 -16 -20 -16 -6 -1
9 6 24 15 32 8 9 12 21 9 27 -10 16 -7 125 5 170 10 38 23 49 34 30z m225 -25
c2 -11 -5 -26 -15 -33 -31 -22 -44 -16 -44 23 0 33 2 35 27 32 18 -2 29 -10
32 -22z m-205 -21 c-27 -36 -34 -41 -34 -26 0 13 40 61 51 61 6 0 -2 -16 -17
-35z m-4568 -56 c8 -14 -14 -29 -33 -22 -7 3 -13 11 -13 19 0 17 36 19 46 3z
m4361 -101 c-3 -7 -5 -2 -5 12 0 14 2 19 5 13 2 -7 2 -19 0 -25z m-4763 -40
c-8 -12 -34 11 -34 28 0 11 4 10 19 -3 11 -9 18 -20 15 -25z m4773 0 c-3 -8
-6 -5 -6 6 -1 11 2 17 5 13 3 -3 4 -12 1 -19z m36 7 c-3 -9 -8 -14 -10 -11 -3
3 -2 9 2 15 9 16 15 13 8 -4z m-4840 -47 c-4 -22 -4 -23 11 -4 16 19 16 19 16
-5 0 -14 -3 -29 -6 -32 -5 -5 -38 6 -52 18 -3 3 30 45 34 45 1 0 0 -10 -3 -22z
m4787 -8 c0 -5 -5 -10 -11 -10 -5 0 -7 5 -4 10 3 6 8 10 11 10 2 0 4 -4 4 -10z
m156 -39 c-19 -19 -30 -9 -21 19 5 17 9 19 21 9 13 -11 13 -14 0 -28z m44 13
c0 -8 -4 -14 -10 -14 -5 0 -10 9 -10 21 0 11 5 17 10 14 6 -3 10 -13 10 -21z
m43 -37 c-9 -14 -23 4 -23 31 l1 27 13 -25 c8 -14 12 -28 9 -33z m-199 37 c9
-3 16 -11 16 -16 0 -6 -6 -8 -14 -5 -8 3 -17 1 -20 -6 -2 -7 -5 -2 -5 11 -1
24 0 25 23 16z m-4644 -34 c-20 -20 -47 -19 -34 1 3 5 9 7 14 4 5 -3 11 -1 15
5 3 5 10 10 16 10 5 0 0 -9 -11 -20z m4591 -13 c-16 -16 -26 0 -10 19 9 11 15
12 17 4 2 -6 -1 -17 -7 -23z m-4751 -4 c0 -7 -4 -13 -10 -13 -5 0 -10 5 -10
11 0 8 -5 8 -15 -1 -12 -10 -15 -10 -15 4 0 11 8 15 25 14 14 -1 25 -8 25 -15z
m190 -28 c0 -5 -5 -3 -10 5 -5 8 -10 20 -10 25 0 6 5 3 10 -5 5 -8 10 -19 10
-25z m4585 -8 c-8 -21 -18 -37 -20 -37 -8 0 6 53 18 68 17 21 18 7 2 -31z
m231 19 c8 -8 14 -31 14 -50 0 -25 4 -36 15 -36 8 0 15 -9 15 -20 0 -18 -2
-19 -21 -8 -17 11 -22 10 -35 -6 -10 -15 -17 -17 -25 -9 -16 16 -3 47 16 39
25 -9 29 21 7 58 -11 19 -18 37 -15 40 9 9 13 8 29 -8z m-96 -5 c0 -6 -4 -13
-10 -16 -5 -3 -10 1 -10 9 0 9 5 16 10 16 6 0 10 -4 10 -9z m53 -18 c3 -16 3
-30 0 -33 -6 -7 -33 31 -33 47 0 25 28 13 33 -14z m-4983 -3 c15 8 20 8 20 -2
0 -18 -20 -47 -20 -30 0 6 -7 12 -15 12 -8 0 -15 -6 -15 -12 0 -9 -3 -8 -10 2
-5 8 -15 15 -22 15 -7 0 -14 8 -16 17 -3 16 -1 16 27 2 23 -11 35 -12 51 -4z
m189 -14 c9 -10 8 -15 -4 -20 -10 -4 -15 1 -15 14 0 24 4 25 19 6z m-259 -20
c0 -3 -4 -8 -10 -11 -5 -3 -10 -1 -10 4 0 6 5 11 10 11 6 0 10 -2 10 -4z m345
-7 c12 -19 -5 -23 -22 -6 -16 16 -16 17 -1 17 9 0 20 -5 23 -11z m-275 -38 c0
-12 -20 -25 -27 -18 -7 7 6 27 18 27 5 0 9 -4 9 -9z m4715 -10 c-3 -6 -11 -11
-17 -11 -6 0 -6 6 2 15 14 17 26 13 15 -4z m-4785 -12 c0 -8 -42 -20 -48 -14
-2 2 -2 8 1 12 6 10 47 12 47 2z m5010 7 c0 -3 -4 -8 -10 -11 -5 -3 -10 -1
-10 4 0 6 5 11 10 11 6 0 10 -2 10 -4z m-4690 -27 c0 -6 -4 -7 -10 -4 -5 3
-10 11 -10 16 0 6 5 7 10 4 6 -3 10 -11 10 -16z m4497 -1 c-3 -8 -6 -5 -6 6
-1 11 2 17 5 13 3 -3 4 -12 1 -19z m50 -14 c-9 -9 -28 6 -21 18 4 6 10 6 17
-1 6 -6 8 -13 4 -17z m-4577 12 c0 -2 -7 -6 -15 -10 -8 -3 -15 -1 -15 4 0 6 7
10 15 10 8 0 15 -2 15 -4z m3908 -30 c4 -30 -30 -76 -55 -76 -20 0 -20 74 0
98 18 23 52 10 55 -22z m966 -12 c20 -36 24 -50 15 -60 -18 -22 -32 -16 -25
11 5 18 0 31 -16 47 -14 14 -23 18 -26 10 -2 -7 -10 -12 -19 -12 -22 0 -9 25
15 28 12 2 22 8 22 13 0 18 9 8 34 -37z m-5139 1 c-17 -13 -36 -24 -44 -25 -8
0 3 13 25 29 46 35 62 31 19 -4z m327 -1 c-12 -8 -22 -22 -22 -30 0 -8 -4 -14
-10 -14 -17 0 -11 26 11 54 16 20 25 24 32 17 8 -8 5 -16 -11 -27z m4688 6 c0
-5 -4 -10 -10 -10 -5 0 -10 5 -10 10 0 6 5 10 10 10 6 0 10 -4 10 -10z m-4888
-32 c-7 -7 -12 -8 -12 -2 0 14 12 26 19 19 2 -3 -1 -11 -7 -17z m-192 -7 c0
-5 -7 -11 -15 -15 -15 -5 -20 5 -8 17 9 10 23 9 23 -2z m157 -13 c-3 -8 -6 -5
-6 6 -1 11 2 17 5 13 3 -3 4 -12 1 -19z m263 12 c0 -5 -2 -10 -4 -10 -3 0 -8
5 -11 10 -3 6 -1 10 4 10 6 0 11 -4 11 -10z m4750 -5 c0 -8 -4 -15 -9 -15 -13
0 -22 16 -14 24 11 11 23 6 23 -9z m-159 -18 c-10 -9 -11 -8 -5 6 3 10 9 15
12 12 3 -3 0 -11 -7 -18z m81 -12 c0 -5 -5 -11 -11 -13 -6 -2 -11 4 -11 13 0
9 5 15 11 13 6 -2 11 -8 11 -13z m-5047 -13 c-3 -3 -11 0 -18 7 -9 10 -8 11 6
5 10 -3 15 -9 12 -12z m4785 8 c0 -5 -4 -10 -10 -10 -5 0 -10 5 -10 10 0 6 5
10 10 10 6 0 10 -4 10 -10z m-4840 -34 c0 -4 -7 -5 -16 -2 -9 4 -22 2 -29 -4
-9 -8 -11 -4 -8 14 4 21 7 22 29 12 13 -6 24 -15 24 -20z m5250 8 c7 -17 7
-31 0 -42 -10 -19 -13 -13 -14 35 -1 40 1 41 14 7z m-5041 -10 c-14 -18 -24
-11 -15 11 3 9 11 13 16 10 8 -5 7 -11 -1 -21z m4671 16 c0 -5 -5 -10 -11 -10
-5 0 -7 5 -4 10 3 6 8 10 11 10 2 0 4 -4 4 -10z m-4710 -16 c0 -8 -4 -12 -10
-9 -5 3 -10 10 -10 16 0 5 5 9 10 9 6 0 10 -7 10 -16z m200 12 c0 -3 -4 -8
-10 -11 -5 -3 -10 -1 -10 4 0 6 5 11 10 11 6 0 10 -2 10 -4z m85 -7 c11 -17
-1 -21 -15 -4 -8 9 -8 15 -2 15 6 0 14 -5 17 -11z m4615 -5 c0 -8 -4 -12 -10
-9 -5 3 -10 10 -10 16 0 5 5 9 10 9 6 0 10 -7 10 -16z m130 -4 c0 -13 -7 -20
-20 -20 -13 0 -20 7 -20 20 0 13 7 20 20 20 13 0 20 -7 20 -20z m-4800 -6 c0
-8 -4 -12 -10 -9 -5 3 -10 10 -10 16 0 5 5 9 10 9 6 0 10 -7 10 -16z m4377 -6
c-3 -8 -6 -5 -6 6 -1 11 2 17 5 13 3 -3 4 -12 1 -19z m-4747 -8 c0 -5 -4 -10
-10 -10 -5 0 -10 5 -10 10 0 6 5 10 10 10 6 0 10 -4 10 -10z m180 -24 c0 -3
-4 -8 -10 -11 -5 -3 -10 -1 -10 4 0 6 5 11 10 11 6 0 10 -2 10 -4z m240 0 c0
-3 -4 -8 -10 -11 -5 -3 -10 -1 -10 4 0 6 5 11 10 11 6 0 10 -2 10 -4z m40 -6
c0 -5 -4 -10 -9 -10 -6 0 -13 5 -16 10 -3 6 1 10 9 10 9 0 16 -4 16 -10z
m4801 -17 c7 -20 6 -21 -22 -11 -25 9 -32 7 -44 -8 -11 -15 -16 -16 -26 -7
-17 17 4 40 39 46 39 6 44 3 53 -20z m-225 -10 c-10 -10 -19 5 -10 18 6 11 8
11 12 0 2 -7 1 -15 -2 -18z m-5094 -5 c-7 -7 -12 -8 -12 -2 0 14 12 26 19 19
2 -3 -1 -11 -7 -17z m438 7 c0 -8 -4 -15 -10 -15 -5 0 -10 7 -10 15 0 8 5 15
10 15 6 0 10 -7 10 -15z m-396 -19 c-6 -16 -24 -23 -24 -8 0 10 22 33 27 28 2
-2 1 -11 -3 -20z m-64 10 c0 -3 -4 -8 -10 -11 -5 -3 -10 -1 -10 4 0 6 5 11 10
11 6 0 10 -2 10 -4z m230 -20 c0 -3 -4 -8 -10 -11 -5 -3 -10 -1 -10 4 0 6 5
11 10 11 6 0 10 -2 10 -4z m5147 -63 c8 -32 17 -68 20 -80 4 -16 1 -23 -9 -23
-7 0 -15 9 -16 20 -1 11 -3 35 -4 53 -3 30 -6 32 -45 35 -45 3 -60 22 -18 22
14 0 30 9 37 20 16 25 18 22 35 -47z m-3713 -5 c20 -54 22 -56 51 -52 35 6 35
6 -66 -66 -78 -56 -162 -154 -264 -307 -72 -108 -220 -273 -379 -422 -34 -33
-66 -79 -66 -97 0 -4 13 12 30 34 33 46 62 57 118 48 74 -14 138 -54 217 -137
80 -86 126 -152 59 -86 -57 56 -65 59 -110 36 -37 -19 -41 -19 -77 -3 -20 10
-41 14 -45 10 -4 -4 -7 -41 -7 -81 0 -43 -5 -79 -12 -86 -8 -8 -11 -7 -10 7 2
13 -4 18 -17 16 -11 -2 -33 10 -52 29 -19 18 -34 27 -34 21 0 -7 -16 -2 -39
14 -28 18 -54 26 -88 27 l-48 1 48 13 c45 14 47 16 47 51 l-1 37 -20 -27 c-11
-16 -27 -28 -35 -28 -9 0 -12 -4 -9 -10 3 -5 0 -10 -8 -10 -8 0 -24 23 -35 50
-21 50 -14 71 9 28 18 -33 31 -39 51 -21 24 21 23 40 -2 48 -11 3 -20 15 -20
26 0 28 17 23 35 -11 20 -39 33 -38 27 1 -9 58 51 151 189 294 69 71 154 168
190 214 170 223 159 211 262 292 80 64 87 72 81 97 -4 15 -11 35 -16 44 -11
22 0 70 15 65 6 -2 20 -29 31 -59z m-1168 17 c-1 -19 -4 -35 -7 -35 -12 0 -20
32 -14 51 10 31 22 22 21 -16z m57 14 c4 -15 2 -19 -10 -15 -8 3 -19 6 -24 6
-4 0 -6 7 -3 15 9 22 31 18 37 -6z m4582 8 c13 -10 16 -21 11 -40 -8 -32 -26
-36 -26 -6 0 11 -5 29 -10 40 -12 22 -2 25 25 6z m-5178 -18 c-5 -19 -4 -20
12 -5 16 15 17 14 13 -17 -3 -17 -7 -26 -9 -19 -3 6 -11 12 -19 12 -15 0 -17
9 -8 34 9 23 17 19 11 -5z m263 -12 c0 -5 -4 -5 -10 -2 -5 3 -10 14 -10 23 0
15 2 15 10 2 5 -8 10 -19 10 -23z m45 13 c-3 -5 -12 -10 -18 -10 -7 0 -6 4 3
10 19 12 23 12 15 0z m-235 -10 c0 -5 -4 -10 -10 -10 -5 0 -10 5 -10 10 0 6 5
10 10 10 6 0 10 -4 10 -10z m4827 -12 c-3 -8 -6 -5 -6 6 -1 11 2 17 5 13 3 -3
4 -12 1 -19z m-3067 -49 c-11 -27 -24 -67 -29 -87 -32 -126 -40 -164 -46 -222
-3 -36 -11 -93 -17 -128 -14 -85 -31 -67 -29 31 2 164 58 371 119 440 23 26
23 21 2 -34z m1837 -36 c65 -174 107 -389 85 -438 -6 -14 -20 -25 -30 -25 -10
0 -23 -5 -29 -11 -8 -8 -13 -8 -18 0 -3 6 1 14 9 17 9 3 16 12 16 20 0 7 7 17
16 22 16 9 16 18 -1 132 -21 153 -48 249 -87 320 l-31 55 28 -27 c16 -14 34
-44 42 -65z m1163 77 c0 -5 -4 -10 -10 -10 -5 0 -10 5 -10 10 0 6 5 10 10 10
6 0 10 -4 10 -10z m17 -12 c-3 -8 -6 -5 -6 6 -1 11 2 17 5 13 3 -3 4 -12 1
-19z m-4787 -3 c0 -8 -7 -15 -16 -15 -14 0 -14 3 -4 15 7 8 14 15 16 15 2 0 4
-7 4 -15z m496 -55 c-12 -30 -16 -32 -22 -16 -5 13 -2 23 9 31 10 7 18 23 18
36 2 21 2 21 6 4 2 -12 -3 -36 -11 -55z m1471 64 c-3 -3 -12 -4 -19 -1 -8 3
-5 6 6 6 11 1 17 -2 13 -5z m-1741 -31 c-10 -10 -19 5 -10 18 6 11 8 11 12 0
2 -7 1 -15 -2 -18z m5077 20 c-7 -2 -19 -2 -25 0 -7 3 -2 5 12 5 14 0 19 -2
13 -5z m-455 -14 c-2 -6 -7 -10 -11 -10 -4 1 -15 1 -24 2 -15 0 -15 2 2 9 28
12 37 12 33 -1z m-4285 -33 c12 -37 -11 -65 -39 -46 -17 10 -17 11 -1 6 9 -3
17 -1 17 5 0 6 5 7 10 4 16 -10 12 18 -7 44 -11 17 -12 22 -3 19 8 -2 18 -17
23 -32z m-613 15 c0 -6 -4 -13 -10 -16 -5 -3 -10 1 -10 9 0 9 5 16 10 16 6 0
10 -4 10 -9z m14 -40 c-17 -15 -17 -15 -6 0 7 9 12 21 11 25 -3 19 4 28 8 10
3 -10 -3 -26 -13 -35z m-55 18 c-16 -10 -23 -4 -14 10 3 6 11 8 17 5 6 -4 5
-9 -3 -15z m3804 -48 c97 -70 221 -196 301 -304 32 -44 68 -91 81 -105 12 -15
66 -76 119 -137 82 -94 135 -167 193 -268 15 -26 51 -29 64 -5 7 14 6 20 -6
24 -18 7 -20 40 -3 50 7 4 8 3 4 -4 -9 -16 11 -52 29 -52 8 0 15 -6 15 -14 0
-7 6 -19 14 -26 12 -9 13 -17 4 -36 -16 -34 -28 -30 -28 11 0 42 -5 43 -42 8
-30 -29 -37 -63 -13 -63 8 0 15 7 15 15 0 19 7 19 27 0 21 -21 9 -45 -22 -45
-43 0 -107 -40 -179 -111 -37 -38 -71 -69 -74 -69 -3 0 -1 5 6 12 7 7 8 17 3
27 -5 9 -12 41 -16 72 -5 43 -3 64 10 88 16 32 16 32 -5 21 -12 -6 -44 -35
-71 -63 -86 -91 -143 -147 -150 -147 -3 0 -9 25 -12 56 -3 30 -13 66 -22 80
-23 35 -10 68 51 130 62 64 153 110 240 123 45 6 54 10 39 16 -24 10 -120 105
-158 157 -15 20 -32 42 -39 50 -44 46 -128 151 -250 313 -42 55 -108 131 -147
170 -65 63 -81 85 -65 85 3 0 43 -27 87 -59z m-3807 -6 c-14 -11 -27 -30 -27
-40 -1 -16 -2 -17 -6 -3 -6 22 14 58 32 58 8 0 15 8 16 18 0 13 2 13 6 3 3 -9
-5 -23 -21 -36z m324 3 c7 -11 6 -18 -4 -21 -10 -4 -12 0 -9 14 3 10 0 19 -6
19 -6 0 -11 8 -11 18 0 18 6 12 30 -30z m859 15 c13 -10 15 -95 5 -145 -22
-111 -97 -186 -121 -121 -3 10 -26 46 -50 79 -24 34 -43 65 -43 70 0 12 111
120 130 126 14 5 70 -1 79 -9z m4031 1 c0 -2 -7 -4 -15 -4 -8 0 -15 4 -15 10
0 5 7 7 15 4 8 -4 15 -8 15 -10z m251 -4 c12 0 24 -11 30 -27 6 -16 22 -51 35
-80 13 -28 24 -68 24 -88 0 -22 6 -38 15 -41 18 -7 21 -38 3 -32 -6 2 -21 17
-32 31 -17 23 -18 31 -8 47 10 16 9 21 -7 30 -29 15 -31 13 -29 -21 2 -18 -2
-34 -9 -36 -8 -3 -10 8 -8 34 1 21 -1 43 -6 49 -6 8 -2 10 16 6 29 -5 34 14 7
22 -14 5 -17 14 -14 34 2 18 -2 33 -14 42 -15 14 -16 12 -12 -22 2 -20 0 -34
-4 -32 -4 3 -8 18 -8 34 0 15 -7 30 -15 34 -8 3 -15 10 -15 17 0 6 7 8 16 5 9
-3 24 -6 35 -6z m-645 -37 c-11 -11 -17 4 -9 23 7 18 8 18 11 1 2 -10 1 -21
-2 -24z m334 33 c0 -3 -4 -8 -10 -11 -5 -3 -10 -1 -10 4 0 6 5 11 10 11 6 0
10 -2 10 -4z m-260 -16 c0 -5 -4 -10 -9 -10 -5 0 -12 -10 -14 -22 -3 -17 -5
-14 -6 10 -1 22 3 32 14 32 8 0 15 -4 15 -10z m-4843 -22 c-3 -8 -6 -5 -6 6
-1 11 2 17 5 13 3 -3 4 -12 1 -19z m216 2 c3 -11 1 -18 -4 -14 -5 3 -9 12 -9
20 0 20 7 17 13 -6z m4574 -12 c-3 -8 -6 -5 -6 6 -1 11 2 17 5 13 3 -3 4 -12
1 -19z m-4153 -3 c3 -8 1 -15 -4 -15 -6 0 -10 7 -10 15 0 8 2 15 4 15 2 0 6
-7 10 -15z m4516 -11 c0 -8 -4 -12 -10 -9 -5 3 -10 10 -10 16 0 5 5 9 10 9 6
0 10 -7 10 -16z m-4900 -15 c0 -12 -8 -23 -20 -26 -11 -3 -17 -10 -13 -16 3
-6 1 -7 -5 -3 -18 11 -14 24 8 31 11 3 20 13 20 21 0 8 2 14 5 14 3 0 5 -9 5
-21z m-310 -34 c-14 -17 -60 -21 -60 -5 0 6 11 8 25 4 15 -4 25 -2 25 5 0 6 5
11 11 11 8 0 8 -5 -1 -15z m40 0 c0 -8 -4 -15 -10 -15 -5 0 -10 7 -10 15 0 8
5 15 10 15 6 0 10 -7 10 -15z m282 -7 c-7 -7 -12 -8 -12 -2 0 14 12 26 19 19
2 -3 -1 -11 -7 -17z m339 -5 c-12 -20 -14 -14 -5 12 4 9 9 14 11 11 3 -2 0
-13 -6 -23z m2649 10 c0 -15 2 -16 10 -3 8 12 10 10 10 -10 0 -20 2 -22 11
-10 8 11 9 8 5 -15 -4 -16 -15 -79 -26 -140 -11 -60 -27 -135 -35 -165 -8 -30
-31 -125 -50 -210 -19 -85 -42 -182 -51 -215 -18 -67 -84 -229 -114 -278 l-20
-32 0 66 c0 144 -81 476 -145 597 l-34 64 25 27 c14 14 39 45 56 69 17 23 34
42 37 42 3 0 20 -24 38 -53 49 -80 121 -166 156 -187 47 -29 45 -7 -6 52 -98
115 -177 252 -177 306 0 20 58 50 150 78 47 14 90 27 95 29 6 2 22 4 38 4 19
1 27 -4 27 -16z m-2673 -25 c-3 -7 -5 -2 -5 12 0 14 2 19 5 13 2 -7 2 -19 0
-25z m4226 -16 c-3 -12 -9 -22 -14 -22 -11 0 -12 31 -3 55 10 25 25 -5 17 -33z
m-4176 6 c-3 -8 -6 -5 -6 6 -1 11 2 17 5 13 3 -3 4 -12 1 -19z m4083 7 c0 -8
-4 -15 -10 -15 -5 0 -10 7 -10 15 0 8 5 15 10 15 6 0 10 -7 10 -15z m440 0 c0
-8 -2 -15 -4 -15 -2 0 -6 7 -10 15 -3 8 -1 15 4 15 6 0 10 -7 10 -15z m-400
-14 c0 -6 -4 -13 -10 -16 -5 -3 -10 1 -10 9 0 9 5 16 10 16 6 0 10 -4 10 -9z
m-4800 -11 c0 -5 -4 -10 -10 -10 -5 0 -10 5 -10 10 0 6 5 10 10 10 6 0 10 -4
10 -10z m-66 -52 c-7 -11 -34 -10 -34 1 0 5 3 17 6 25 6 15 8 15 19 -1 7 -10
11 -21 9 -25z m5204 18 c2 -10 -2 -23 -9 -30 -9 -8 -11 -7 -6 7 4 9 2 17 -3
17 -6 0 -10 -12 -10 -26 0 -32 -24 -27 -28 6 -6 41 49 66 56 26z m-4864 -1
c-4 -8 -8 -15 -10 -15 -2 0 -4 7 -4 15 0 8 4 15 10 15 5 0 7 -7 4 -15z m-298
-31 c-5 -13 -10 -14 -18 -6 -6 6 -8 18 -4 28 5 13 10 14 18 6 6 -6 8 -18 4
-28z m689 26 c3 -5 2 -10 -4 -10 -5 0 -13 5 -16 10 -3 6 -2 10 4 10 5 0 13 -4
16 -10z m4090 0 c-3 -5 -10 -10 -16 -10 -5 0 -9 5 -9 10 0 6 7 10 16 10 8 0
12 -4 9 -10z m425 6 c0 -3 -4 -8 -10 -11 -5 -3 -10 -1 -10 4 0 6 5 11 10 11 6
0 10 -2 10 -4z m-4940 -26 c0 -11 -4 -20 -10 -20 -5 0 -10 9 -10 20 0 11 5 20
10 20 6 0 10 -9 10 -20z m478 8 c7 -7 12 -21 12 -32 -1 -20 -1 -20 -20 3 -29
34 -22 59 8 29z m4102 -14 c0 -24 -1 -24 -25 -8 -32 21 -32 29 0 30 20 2 25
-3 25 -22z m-4902 -44 c3 -7 0 -10 -6 -6 -6 4 -18 -6 -26 -21 -17 -32 -21 -18
-6 22 10 27 30 30 38 5z m42 -1 c0 -5 -7 -9 -15 -9 -15 0 -20 12 -9 23 8 8 24
-1 24 -14z m5237 -1 c-3 -8 -6 -5 -6 6 -1 11 2 17 5 13 3 -3 4 -12 1 -19z
m325 -3 c0 -5 -5 -11 -11 -13 -6 -2 -11 4 -11 13 0 9 5 15 11 13 6 -2 11 -8
11 -13z m-787 -35 c0 -13 -5 -25 -11 -27 -7 -2 -11 8 -10 27 1 35 21 35 21 0z
m861 15 c-3 -9 0 -24 6 -35 13 -21 4 -40 -12 -24 -5 5 -13 24 -16 42 -5 26 -3
32 11 32 11 0 15 -5 11 -15z m-786 -16 c0 -6 -4 -7 -10 -4 -5 3 -10 11 -10 16
0 6 5 7 10 4 6 -3 10 -11 10 -16z m-4036 -31 c-3 -5 -15 0 -25 11 -26 28 -24
35 6 15 14 -9 22 -21 19 -26z m1830 -54 c25 -47 46 -95 46 -106 0 -10 -13 -50
-29 -88 -51 -119 -110 -388 -123 -560 -3 -33 -5 -30 -51 61 -35 69 -59 139
-87 250 -44 177 -58 255 -43 246 14 -9 26 54 13 67 -30 30 7 131 51 141 16 4
33 4 38 1 5 -3 14 1 21 9 19 22 32 18 20 -6 -21 -39 -3 -30 45 20 27 28 49 51
51 51 1 0 23 -39 48 -86z m261 70 c20 -15 20 -15 1 -30 -26 -19 -52 -18 -60 2
-7 18 10 44 28 44 6 0 20 -8 31 -16z m-2948 -16 c-3 -8 -6 -5 -6 6 -1 11 2 17
5 13 3 -3 4 -12 1 -19z m5293 2 c0 -5 -4 -10 -10 -10 -5 0 -10 5 -10 10 0 6 5
10 10 10 6 0 10 -4 10 -10z m-4900 -4 c0 -11 -19 -15 -25 -6 -3 5 1 10 9 10 9
0 16 -2 16 -4z m4444 -53 c-25 -18 -29 -9 -14 28 13 32 14 32 22 8 7 -18 5
-27 -8 -36z m-4888 19 c-8 -9 -19 -13 -22 -9 -10 9 16 38 28 31 6 -4 4 -13 -6
-22z m53 4 c7 -8 8 -17 3 -19 -4 -3 -13 3 -20 14 -14 22 0 26 17 5z m361 -18
c0 -5 -4 -8 -10 -8 -5 0 -10 10 -10 23 0 18 2 19 10 7 5 -8 10 -18 10 -22z
m444 17 c-4 -8 -10 -15 -15 -15 -5 0 -9 7 -9 15 0 8 7 15 15 15 9 0 12 -6 9
-15z m36 0 c0 -8 -2 -15 -4 -15 -2 0 -6 7 -10 15 -3 8 -1 15 4 15 6 0 10 -7
10 -15z m4820 -11 c0 -8 -4 -14 -10 -14 -5 0 -10 9 -10 21 0 11 5 17 10 14 6
-3 10 -13 10 -21z m-393 -26 c-3 -8 -6 -5 -6 6 -1 11 2 17 5 13 3 -3 4 -12 1
-19z m443 -3 c0 -29 -3 -30 -24 -9 -22 21 -20 34 4 34 15 0 20 -7 20 -25z
m-5745 -4 c-4 -12 -1 -21 8 -23 11 -2 12 -9 5 -27 -8 -24 -9 -24 -22 -5 -15
21 -10 74 6 74 5 0 7 -9 3 -19z m4798 -11 c-3 -11 -9 -20 -14 -20 -10 0 -12
24 -2 33 13 13 21 7 16 -13z m-4841 -32 c-15 -15 -26 -4 -18 18 5 13 9 15 18
6 9 -9 9 -15 0 -24z m428 22 c0 -5 -5 -10 -11 -10 -5 0 -7 5 -4 10 3 6 8 10
11 10 2 0 4 -4 4 -10z m548 -20 c3 -21 2 -22 -12 -11 -19 16 -21 44 -3 39 6
-3 14 -15 15 -28z m-468 -15 c0 -14 -4 -25 -10 -25 -11 0 -14 33 -3 43 11 11
13 8 13 -18z m5292 5 c-2 -7 5 -21 14 -31 10 -11 15 -28 12 -43 -3 -17 1 -31
13 -42 12 -11 19 -31 19 -56 0 -21 4 -38 9 -38 12 0 25 -39 17 -48 -4 -3 -13
3 -21 15 -8 11 -28 23 -45 26 -16 4 -30 10 -30 15 0 5 11 7 25 4 27 -5 35 15
10 24 -8 4 -15 11 -15 16 0 6 7 8 15 4 8 -3 15 -1 15 5 0 5 -7 12 -15 15 -11
5 -15 17 -13 43 3 32 0 38 -29 50 -37 16 -43 31 -13 31 14 0 18 5 13 16 -4 12
-2 15 8 12 8 -3 13 -11 11 -18z m-3861 -20 c8 0 24 -7 36 -15 20 -14 21 -17 6
-45 -19 -39 -32 -134 -33 -240 0 -51 -6 -95 -14 -109 l-13 -24 -12 21 c-30 56
-30 231 0 355 8 36 8 52 0 60 -6 6 -11 16 -11 22 0 5 7 2 14 -7 7 -10 20 -18
27 -18z m3345 4 c-4 -9 -9 -15 -11 -12 -3 3 -3 13 1 22 4 9 9 15 11 12 3 -3 3
-13 -1 -22z m87 -10 c-7 -20 -10 -18 -15 11 -4 20 -2 23 8 14 7 -6 10 -17 7
-25z m-52 -7 c-10 -9 -11 -8 -5 6 3 10 9 15 12 12 3 -3 0 -11 -7 -18z m-5336
-16 c-7 -23 -25 -29 -25 -8 0 14 21 39 28 33 2 -3 1 -14 -3 -25z m3030 -3 c4
-18 16 -51 26 -73 66 -145 79 -305 25 -305 -23 0 -66 51 -78 94 -6 22 -15 46
-18 51 -19 28 -32 110 -26 162 11 94 57 139 71 71z m882 8 c-16 -13 -16 -17 8
-80 29 -77 30 -86 10 -86 -8 0 -33 25 -55 55 -22 30 -46 55 -52 55 -18 0 24
40 62 60 38 20 56 16 27 -4z m914 -29 c-13 -13 -15 11 -4 40 7 16 8 15 11 -6
2 -13 -1 -28 -7 -34z m-3864 21 c15 -16 21 -35 20 -62 0 -21 -3 -34 -5 -27 -2
6 -11 11 -20 11 -15 1 -15 2 1 14 18 14 23 36 7 36 -5 0 -20 11 -34 25 -21 21
-22 25 -7 25 10 0 27 -10 38 -22z m-907 -4 c0 -14 -3 -14 -15 -4 -8 7 -15 14
-15 16 0 2 7 4 15 4 8 0 15 -7 15 -16z m4850 -15 c0 -18 -2 -19 -15 -9 -8 7
-15 16 -15 21 0 5 7 9 15 9 9 0 15 -9 15 -21z m-4434 -35 c-3 -8 -10 -13 -15
-9 -5 3 -12 1 -16 -5 -9 -15 -25 -12 -25 5 0 9 8 19 18 22 9 4 21 14 27 22 8
14 10 14 13 -2 2 -10 1 -25 -2 -33z m5314 10 c0 -8 -5 -12 -10 -9 -6 4 -8 11
-5 16 9 14 15 11 15 -7z m-5816 -2 c2 -4 -2 -15 -9 -25 -15 -20 -28 -8 -19 17
7 17 20 21 28 8z m59 -37 c-5 -9 -13 -11 -22 -6 -11 7 -11 12 0 29 11 18 15
19 22 7 4 -8 4 -22 0 -30z m3573 18 c-10 -10 -19 5 -10 18 6 11 8 11 12 0 2
-7 1 -15 -2 -18z m-3086 2 c0 -8 -4 -15 -10 -15 -5 0 -10 7 -10 15 0 8 5 15
10 15 6 0 10 -7 10 -15z m4295 -5 c-3 -5 -11 -10 -16 -10 -6 0 -7 5 -4 10 3 6
11 10 16 10 6 0 7 -4 4 -10z m50 -29 c8 -17 11 -32 6 -35 -5 -3 -11 2 -14 12
-2 9 -8 25 -12 35 -12 28 3 19 20 -12z m-4894 -71 l-10 -25 0 25 c-1 14 3 36
7 50 l7 25 3 -25 c2 -14 -2 -37 -7 -50z m517 58 c-3 -7 -13 -15 -24 -17 -16
-3 -17 -1 -5 13 16 19 34 21 29 4z m557 -19 c0 -7 -8 -15 -17 -17 -18 -3 -25
18 -11 32 10 10 28 1 28 -15z m-1025 -14 c0 -8 -4 -15 -10 -15 -5 0 -7 7 -4
15 4 8 8 15 10 15 2 0 4 -7 4 -15z m3764 7 c2 -4 -12 -6 -32 -4 -56 5 -62 10
-15 11 23 1 44 -3 47 -7z m-1340 -52 l6 -35 -14 35 c-17 42 -20 58 -7 45 5 -6
12 -26 15 -45z m-2004 36 c0 -3 -4 -8 -10 -11 -5 -3 -10 -1 -10 4 0 6 5 11 10
11 6 0 10 -2 10 -4z m3400 -55 c0 -14 -5 -33 -10 -41 -7 -11 -10 -7 -10 17 0
17 -5 44 -11 59 -10 28 -10 28 10 9 12 -10 21 -30 21 -44z m1537 53 c-3 -3
-12 -4 -19 -1 -8 3 -5 6 6 6 11 1 17 -2 13 -5z m-4377 -49 c-18 -22 -30 -18
-30 8 0 32 9 39 27 21 12 -12 13 -18 3 -29z m3833 30 c-3 -9 -8 -14 -10 -11
-3 3 -2 9 2 15 9 16 15 13 8 -4z m-4903 -14 c0 -6 -4 -13 -10 -16 -5 -3 -10 1
-10 9 0 9 5 16 10 16 6 0 10 -4 10 -9z m533 -11 c-5 -19 -23 -29 -23 -12 0 7
20 32 26 32 1 0 0 -9 -3 -20z m4317 2 c0 -4 -9 -8 -20 -9 -11 -1 -18 2 -15 8
7 11 35 12 35 1z m1060 -8 c0 -8 -4 -12 -10 -9 -5 3 -10 10 -10 16 0 5 5 9 10
9 6 0 10 -7 10 -16z m-5890 -21 c-1 -10 -66 -83 -74 -83 -9 0 57 89 67 90 4 0
7 -3 7 -7z m2528 -83 c0 -8 -6 1 -13 20 -7 19 -13 42 -13 50 0 8 6 -1 13 -20
7 -19 13 -42 13 -50z m2357 71 c3 -5 2 -12 -3 -15 -5 -3 -9 1 -9 9 0 17 3 19
12 6z m1075 -16 c5 -14 17 -25 26 -25 11 0 15 -6 11 -20 -3 -11 -1 -23 4 -26
5 -3 9 -13 9 -23 0 -9 5 -22 12 -29 7 -7 11 -31 9 -53 -3 -46 8 -59 49 -59 36
0 86 -34 106 -71 12 -24 15 -46 10 -84 l-6 -51 76 -29 c92 -37 114 -55 114
-99 0 -38 -9 -48 -62 -66 -32 -12 -39 -21 -58 -71 -46 -127 -161 -242 -326
-324 -106 -54 -228 -82 -379 -90 l-100 -5 70 14 c74 14 198 56 203 69 2 4 15
7 28 7 14 0 59 19 102 43 42 23 90 49 106 57 51 26 120 103 160 178 21 41 36
75 34 78 -3 2 -146 -3 -319 -12 -338 -16 -579 -13 -809 12 -201 22 -300 41
-350 66 -49 26 -127 53 -178 63 -32 7 -33 6 -26 -22 18 -77 148 -244 218 -280
35 -18 139 -94 144 -105 2 -5 8 -8 13 -8 5 0 18 -8 30 -17 11 -10 32 -28 46
-40 24 -19 53 -30 193 -69 73 -20 12 -16 -72 6 -134 33 -304 129 -400 224 -43
43 -50 47 -83 40 -36 -6 -51 10 -20 22 8 4 15 10 15 14 0 14 -82 130 -88 126
-4 -2 -7 37 -7 87 l0 92 39 -3 c35 -3 38 -2 26 13 -11 13 -10 18 3 33 8 9 17
26 20 37 3 11 4 -5 2 -35 -3 -53 -2 -57 28 -77 34 -24 221 -78 236 -69 5 3 21
34 36 69 30 72 53 86 146 88 l54 2 -70 12 c-67 12 -60 13 130 13 110 0 181 -4
158 -7 -67 -11 -62 -21 10 -21 60 0 67 2 67 20 0 13 5 18 15 14 12 -5 13 -10
5 -19 -9 -11 -2 -15 34 -20 55 -9 78 -1 74 22 -3 21 3 21 152 8 66 -6 86 -11
65 -15 -27 -6 -26 -7 20 -14 61 -9 119 -45 142 -88 9 -18 16 -36 15 -40 -1 -5
2 -8 8 -8 5 0 7 -7 3 -16 -5 -13 4 -14 73 -8 44 4 80 8 82 9 2 2 -3 16 -11 32
-8 15 -17 43 -21 62 -3 19 -14 39 -23 46 -16 12 -16 14 1 30 15 15 17 32 13
107 -2 48 0 88 5 88 15 0 8 61 -12 100 -11 22 -20 49 -20 60 0 12 -11 32 -25
46 -29 29 -31 34 -10 34 9 0 20 -11 25 -25z m-4814 3 c4 -6 2 -14 -4 -16 -7
-2 -12 -10 -12 -18 0 -8 -4 -14 -8 -14 -5 0 -9 14 -9 30 0 30 19 41 33 18z
m-1116 -8 c0 -5 -4 -10 -10 -10 -5 0 -10 5 -10 10 0 6 5 10 10 10 6 0 10 -4
10 -10z m5884 -25 c-4 -8 -8 -15 -10 -15 -2 0 -4 7 -4 15 0 8 4 15 10 15 5 0
7 -7 4 -15z m-5917 -67 c-3 -7 -5 -2 -5 12 0 14 2 19 5 13 2 -7 2 -19 0 -25z
m5954 12 c15 0 10 -17 -6 -24 -9 -3 -19 3 -26 16 -10 18 -9 20 6 15 9 -4 21
-7 26 -7z m-6006 -20 c19 -8 19 -9 1 -9 -10 -1 -24 -9 -31 -18 -12 -16 -12
-14 -8 10 6 29 8 30 38 17z m545 -10 c0 -5 -5 -10 -11 -10 -5 0 -7 5 -4 10 3
6 8 10 11 10 2 0 4 -4 4 -10z m614 -45 c-4 -8 -8 -15 -10 -15 -2 0 -4 7 -4 15
0 8 4 15 10 15 5 0 7 -7 4 -15z m-1114 -5 c0 -5 -5 -10 -11 -10 -5 0 -7 5 -4
10 3 6 8 10 11 10 2 0 4 -4 4 -10z m5985 0 c3 -5 -1 -10 -9 -10 -9 0 -16 5
-16 10 0 6 4 10 9 10 6 0 13 -4 16 -10z m-6075 -15 c0 -8 5 -15 10 -15 6 0 10
-4 10 -10 0 -12 -37 -13 -44 -1 -8 12 3 41 15 41 5 0 9 -7 9 -15z m4961 -41
c14 -23 21 -50 21 -84 l-1 -50 240 0 c135 0 239 -4 239 -9 0 -5 -102 -8 -239
-7 l-239 2 -26 -65 c-41 -103 -62 -134 -89 -125 -29 8 -68 45 -64 58 2 6 -3
17 -12 24 -14 11 -14 11 3 5 16 -5 18 -3 13 11 -5 13 2 21 31 32 80 32 82 34
66 59 -8 12 -12 29 -9 37 4 9 -3 19 -19 26 -14 6 -29 20 -35 30 -8 16 -3 26
30 60 23 23 47 38 55 35 7 -3 23 -20 35 -39z m-4334 4 c-3 -8 -6 -5 -6 6 -1
11 2 17 5 13 3 -3 4 -12 1 -19z m651 -20 c-2 -15 -13 -24 -35 -30 -25 -6 -33
-15 -39 -41 -4 -17 -6 -44 -5 -59 1 -16 -2 -28 -8 -28 -6 0 -11 4 -11 9 0 5
-115 12 -255 16 -140 4 -255 11 -255 16 0 5 17 7 38 4 20 -2 133 -7 250 -10
l212 -6 0 41 c0 23 7 54 15 69 8 16 13 30 10 32 -2 2 17 5 41 6 41 2 45 0 42
-19z m4282 3 c0 -5 3 -18 6 -28 5 -16 4 -16 -10 1 -18 23 -20 36 -6 36 6 0 10
-4 10 -9z m-5595 -21 c11 -5 15 -9 8 -9 -16 -1 -57 -40 -71 -68 -16 -29 -15
-65 1 -87 17 -23 97 -12 97 14 0 9 12 22 26 29 23 10 25 15 20 52 -3 22 -8 44
-10 48 -3 4 -1 13 3 20 13 21 22 -83 12 -131 -6 -24 -17 -59 -26 -78 l-16 -35
6 45 c3 25 2 40 -2 34 -10 -14 -142 -55 -154 -48 -14 8 -10 24 6 24 12 0 14 8
9 40 -9 55 2 103 31 134 26 28 30 29 60 16z m612 -32 c-3 -8 -6 -5 -6 6 -1 11
2 17 5 13 3 -3 4 -12 1 -19z m3973 -85 c17 -26 30 -55 30 -64 0 -20 -52 -57
-58 -41 -2 6 -9 9 -17 6 -17 -7 -46 47 -47 88 -1 31 22 58 49 58 7 0 27 -21
43 -47z m-2876 11 c20 -19 21 -74 2 -119 -18 -42 -28 -43 -54 -10 -21 27 -19
48 9 118 13 31 21 33 43 11z m-1105 1 c-3 -2 -86 -6 -184 -8 -120 -3 -145 -2
-75 2 138 9 264 12 259 6z m5414 -12 c114 -10 57 -19 -75 -11 -67 4 -167 9
-222 12 -54 3 -101 8 -105 12 -6 7 286 -2 402 -13z m-5408 -34 c11 -17 49 -27
66 -18 13 7 18 3 24 -19 7 -27 7 -27 18 -4 10 22 31 29 41 13 3 -5 41 -12 83
-17 43 -4 80 -8 83 -9 24 -5 164 -38 198 -47 23 -6 42 -16 43 -22 0 -6 4 -2 9
9 6 15 9 16 9 4 1 -9 -2 -19 -6 -23 -4 -3 -7 -15 -8 -26 -1 -17 5 -20 36 -20
45 0 53 9 38 47 -21 54 -37 113 -30 113 3 0 12 -19 19 -42 15 -47 38 -78 59
-78 7 0 13 -4 13 -10 0 -14 29 -12 102 6 61 16 122 42 68 30 -67 -16 -71 -15
-22 5 60 23 71 39 52 75 -15 27 -4 48 11 21 6 -9 17 -17 25 -17 11 0 13 -6 9
-21 -6 -18 -4 -20 15 -14 55 17 87 -16 56 -60 -7 -11 -16 -40 -20 -65 -17
-112 -186 -315 -328 -394 -67 -37 -220 -96 -248 -95 -8 0 19 14 61 32 128 54
188 96 345 241 55 52 84 88 109 139 19 38 35 78 35 89 0 18 -1 18 -40 -2 -75
-38 -227 -72 -329 -74 -51 0 -83 -4 -70 -7 l24 -7 -25 -1 c-461 -23 -597 -27
-725 -20 l-150 7 170 -2 c267 -2 306 8 60 16 -121 4 -263 10 -315 12 l-95 5
85 -14 85 -13 -135 5 c-74 3 -139 6 -145 7 -33 4 45 -155 104 -213 26 -25 64
-55 86 -66 22 -11 60 -31 85 -45 25 -14 63 -31 85 -39 22 -7 47 -19 55 -26 29
-24 79 -45 132 -55 51 -9 51 -9 -18 -4 -230 16 -413 93 -549 229 -62 62 -89
98 -118 158 -34 70 -42 80 -82 98 -30 13 -47 28 -51 44 -11 43 5 64 77 100 60
31 114 47 96 29 -3 -4 -2 -14 3 -24 7 -13 4 -20 -17 -29 -38 -17 -20 -29 88
-57 88 -22 191 -32 176 -17 -4 3 2 13 13 20 17 12 20 24 18 61 l-3 47 90 12
c203 29 193 27 160 32 -23 4 -17 7 30 11 102 11 174 11 180 -1z m1300 -189
c-12 -38 -26 -65 -42 -75 -30 -20 -29 -10 1 30 13 17 29 51 36 74 6 24 14 40
17 37 4 -3 -2 -33 -12 -66z m-1879 32 c-24 -5 -49 6 -41 18 3 6 16 5 32 -3 21
-9 23 -13 9 -15z m4168 -204 c8 -257 3 -300 -52 -401 -44 -82 -64 -97 -54 -40
13 68 8 306 -5 310 -7 3 -22 12 -34 22 l-21 17 36 39 c24 27 43 62 57 110 37
128 51 165 59 165 4 0 11 -100 14 -222z m-2065 73 c24 -66 43 -101 72 -130 21
-23 39 -45 39 -50 0 -5 -13 -14 -30 -20 -30 -10 -30 -10 -32 -93 0 -46 -2 -94
-4 -108 -1 -14 -3 -54 -4 -88 -1 -35 -6 -60 -10 -55 -5 4 -24 38 -44 74 -56
102 -69 183 -62 373 6 149 16 203 35 192 4 -3 22 -46 40 -95z m2251 25 c24
-28 24 -28 3 -17 -13 6 -27 20 -33 31 -12 22 -13 38 -2 25 4 -6 18 -23 32 -39z
m681 -323 c13 -16 12 -17 -3 -4 -10 7 -18 15 -18 17 0 8 8 3 21 -13z m-2741
-343 c12 -7 14 -38 12 -172 -1 -97 3 -212 12 -283 8 -66 13 -122 10 -124 -2
-2 1 -10 7 -18 9 -10 8 -18 -6 -33 -18 -19 -17 -20 8 -20 40 0 33 -24 -13 -45
-23 -11 -40 -25 -40 -35 0 -9 -17 -30 -37 -46 -77 -61 -122 -128 -123 -182 0
-13 -7 -39 -16 -58 -9 -19 -14 -38 -10 -41 3 -4 -1 -14 -9 -23 -8 -9 -16 -33
-17 -55 l-3 -38 -140 7 c-77 4 -172 13 -212 19 l-71 13 12 -26 c7 -14 16 -52
20 -84 4 -33 15 -79 25 -102 22 -49 22 -49 -62 -59 -64 -8 -136 8 -168 38 -17
16 -19 26 -14 59 6 31 4 39 -6 36 -23 -8 -50 -54 -56 -95 -5 -36 -2 -43 20
-58 41 -26 259 -69 487 -95 114 -13 236 -37 198 -39 -14 0 -89 8 -165 18 -76
10 -183 24 -238 30 -55 6 -140 20 -190 30 -100 21 -104 20 -105 -39 -1 -19 -7
-53 -15 -75 -22 -59 -28 -52 75 -91 49 -18 12 -18 -90 2 -107 20 -186 50 -205
77 -20 28 -19 80 1 123 24 51 139 153 236 209 94 55 117 84 127 165 5 37 12
48 46 72 52 36 257 94 388 110 l102 13 27 56 c15 32 47 74 76 100 27 24 61 67
76 94 31 59 32 92 11 320 -8 88 -15 204 -15 258 0 86 2 97 18 97 9 0 24 -4 32
-10z m1670 -107 c0 -65 -5 -145 -10 -178 -6 -33 -13 -112 -17 -176 -6 -110 -5
-119 20 -172 16 -34 49 -79 89 -119 36 -35 77 -86 92 -115 l28 -52 72 -11
c191 -31 325 -71 399 -117 33 -20 37 -28 37 -63 0 -71 25 -106 112 -152 97
-52 188 -126 228 -186 24 -37 30 -56 30 -102 0 -31 -6 -64 -12 -73 -13 -16
-130 -49 -218 -62 -43 -6 -42 -5 30 27 96 43 98 54 26 134 l-55 61 -163 -32
c-90 -18 -192 -36 -228 -39 -60 -5 -58 -4 30 14 52 11 130 29 172 41 l77 21
-29 31 -28 30 -70 -11 c-91 -15 -102 -15 -79 2 10 8 17 18 16 22 -2 5 3 27 9
49 7 22 16 73 20 113 l8 72 -30 0 c-17 0 -103 -7 -191 -15 -88 -8 -180 -14
-205 -14 l-45 1 50 12 c45 11 50 15 46 37 -5 38 -19 57 -43 61 -20 3 -23 8
-20 38 2 19 0 60 -3 90 -6 48 -13 60 -54 100 -25 25 -70 63 -98 84 -29 22 -50
43 -47 48 3 4 -8 8 -24 8 -28 0 -29 1 -19 25 7 14 21 25 32 25 19 1 19 2 -3
20 -12 10 -18 21 -14 24 22 14 45 352 33 496 -9 109 -6 120 32 120 15 0 17
-12 17 -117z m-943 -271 c-18 -20 -89 -169 -130 -273 -26 -65 -26 -66 -9 -115
l18 -49 206 -3 207 -2 10 37 c21 76 16 109 -48 283 -17 47 -31 90 -31 95 1 22
31 -46 76 -173 l48 -132 40 -11 c23 -6 43 -15 46 -19 3 -4 28 -19 57 -33 l51
-26 -10 -41 c-6 -22 -15 -40 -20 -40 -5 0 -6 -4 -3 -10 3 -5 3 -10 -2 -10 -16
1 -51 35 -66 65 -8 17 -25 39 -36 49 -35 32 -46 8 -46 -94 0 -78 -2 -90 -17
-90 -10 0 -24 -16 -35 -37 -21 -45 -30 -55 -74 -82 -43 -26 -156 -29 -239 -5
-50 14 -58 20 -80 62 -14 27 -37 53 -53 60 -28 13 -28 14 -27 105 1 51 -1 100
-5 109 -7 16 14 83 42 138 7 14 13 29 13 34 0 14 80 178 102 209 11 16 23 26
26 23 3 -3 -2 -14 -11 -24z m1563 -164 c17 -32 4 -54 -27 -44 -22 7 -47 52
-37 67 11 18 48 4 64 -23z m-1865 -228 c7 -21 -3 -70 -14 -70 -4 0 -20 14 -37
31 l-29 31 23 18 c26 21 48 17 57 -10z m-110 -441 c31 -5 -3 -6 -85 -2 -74 3
-157 9 -185 13 -30 5 4 6 85 3 74 -3 158 -9 185 -14z m1320 12 c-70 -29 -955
-58 -955 -32 0 8 71 11 253 12 138 0 331 6 427 13 211 16 303 18 275 7z m400
-351 c-16 -4 -41 -8 -55 -8 -23 -1 -23 0 -5 8 11 5 36 8 55 8 l35 0 -30 -8z
m-848 -66 c-3 -3 -12 -4 -19 -1 -8 3 -5 6 6 6 11 1 17 -2 13 -5z m80 0 c-3 -3
-12 -4 -19 -1 -8 3 -5 6 6 6 11 1 17 -2 13 -5z m1200 -80 c-3 -3 -12 -4 -19
-1 -8 3 -5 6 6 6 11 1 17 -2 13 -5z m-5110 -136 c33 -12 34 -13 31 -68 l-3
-55 -115 0 -115 0 -3 -244 -2 -244 -75 6 c-41 3 -79 8 -85 12 -6 4 -10 88 -10
236 0 126 -3 230 -7 230 -5 1 -57 4 -118 8 l-110 6 -3 49 c-2 27 -1 55 2 62 7
19 562 20 613 2z m783 0 c40 -13 40 -13 40 -65 0 -35 -4 -53 -12 -54 -7 0
-115 0 -239 1 l-227 1 -3 -51 c-2 -29 -2 -54 0 -56 2 -2 83 -4 179 -4 97 0
204 -5 239 -11 l63 -11 0 -59 0 -59 -239 0 -239 0 -4 -51 c-1 -28 -1 -53 1
-55 2 -2 95 -4 205 -4 111 0 218 -3 239 -6 l37 -7 0 -59 0 -60 -277 4 c-302 3
-316 6 -357 61 -19 26 -21 45 -24 232 -4 193 -3 206 17 248 36 73 49 77 324
77 162 0 250 -4 277 -12z m742 -15 c76 -35 78 -42 78 -339 l0 -257 -73 5 c-41
3 -79 8 -85 12 -9 5 -12 73 -12 237 0 176 -3 229 -12 229 -7 0 -23 3 -35 6
l-23 6 0 -246 0 -246 -47 0 c-27 0 -65 3 -85 6 l-38 7 0 233 c0 181 -3 234
-12 234 -7 0 -23 3 -35 6 l-23 6 0 -246 0 -246 -47 0 c-27 0 -65 3 -85 6 l-38
7 0 256 c0 365 -11 353 315 348 191 -2 214 -4 257 -24z m783 2 c22 -11 50 -35
63 -54 22 -34 22 -39 20 -285 l-3 -251 -45 -3 c-25 -2 -62 1 -83 5 l-39 8 -1
110 -2 110 -157 3 -158 3 0 -122 0 -122 -75 6 c-41 3 -79 8 -85 12 -6 4 -10
94 -10 253 0 364 -9 355 320 350 191 -3 219 -5 255 -23z m832 13 l33 -12 0
-266 c0 -146 -3 -274 -6 -285 -8 -33 -39 -46 -87 -39 -38 6 -58 22 -214 177
-125 123 -173 166 -174 152 0 -11 -1 -90 -2 -175 l-2 -155 -30 -3 c-16 -2 -53
-1 -82 3 l-53 6 0 280 c0 174 4 288 10 300 13 23 65 26 113 5 18 -8 102 -84
187 -170 85 -86 158 -156 162 -156 5 0 8 79 8 175 l0 175 52 0 c28 0 67 -5 85
-12z m752 6 l31 -6 0 -114 0 -114 161 0 160 0 -2 118 -1 117 61 3 c35 2 61 -1
61 -7 0 -5 10 -11 23 -13 l22 -3 0 -295 0 -295 -52 -3 c-28 -2 -66 1 -83 5
l-32 8 -1 110 -2 110 -157 3 -158 3 0 -121 0 -120 -47 0 c-27 0 -65 3 -85 6
l-38 7 0 297 c0 163 3 300 7 303 8 9 90 9 132 1z m778 -6 l33 -12 1 -211 c1
-115 2 -219 3 -230 1 -19 8 -20 156 -20 l155 0 3 243 2 242 45 0 c25 0 63 -6
85 -12 l40 -13 0 -250 c0 -360 11 -348 -324 -343 -178 3 -228 7 -258 20 -65
29 -68 44 -68 338 l0 260 47 0 c26 0 62 -5 80 -12z m783 0 l40 -13 0 -107 c0
-77 3 -108 12 -108 7 0 67 54 133 120 l122 120 73 0 c41 0 89 -5 107 -12 32
-12 33 -14 33 -65 0 -58 -1 -59 -78 -54 -29 2 -43 -7 -123 -85 -49 -49 -88
-94 -87 -100 2 -7 36 -47 77 -89 55 -56 83 -77 105 -80 17 -2 48 -7 69 -10
l37 -7 0 -59 0 -59 -77 0 c-123 0 -137 7 -262 130 -61 61 -118 110 -126 110
-13 0 -15 -20 -15 -120 l0 -120 -39 0 c-21 0 -59 3 -85 6 l-46 7 0 303 0 304
45 0 c25 0 63 -6 85 -12z m787 0 l33 -12 2 -230 3 -231 155 0 155 0 3 243 2
242 45 0 c25 0 63 -6 85 -12 l40 -13 0 -243 c0 -365 10 -354 -320 -350 -201 3
-229 5 -265 23 -66 33 -69 48 -73 323 -2 134 -1 249 2 257 7 19 85 20 133 3z
m1225 -15 c76 -35 78 -43 78 -338 l0 -255 -39 0 c-21 0 -59 3 -85 6 l-46 7 0
232 0 233 -27 5 c-16 3 -31 3 -35 0 -5 -2 -8 -112 -8 -244 l0 -239 -47 0 c-27
0 -65 3 -85 6 l-38 7 0 232 0 233 -27 5 c-16 3 -31 3 -35 0 -5 -2 -8 -112 -8
-244 l0 -239 -47 0 c-27 0 -65 3 -85 6 l-38 7 0 263 0 263 30 35 c17 19 41 37
53 39 12 3 117 4 232 3 192 -1 214 -3 257 -23z"/>
<path d="M5176 9641 c-3 -5 1 -22 9 -37 l15 -29 0 32 c0 32 -14 51 -24 34z"/>
<path d="M6625 9070 c3 -5 8 -10 11 -10 2 0 4 5 4 10 0 6 -5 10 -11 10 -5 0
-7 -4 -4 -10z"/>
<path d="M4940 9020 c42 -38 156 -120 166 -120 8 0 -17 19 -121 94 -44 32 -64
43 -45 26z"/>
<path d="M5121 8887 c16 -12 79 -45 79 -42 0 7 -63 45 -74 45 -5 0 -7 -1 -5
-3z"/>
<path d="M5380 8867 c0 -2 14 -16 30 -32 17 -16 30 -24 30 -19 0 6 -13 20 -30
32 -16 13 -30 21 -30 19z"/>
<path d="M5235 8828 c11 -8 29 -18 40 -22 18 -6 18 -5 5 7 -8 8 -26 18 -40 22
-24 7 -24 6 -5 -7z"/>
<path d="M5466 8795 c10 -8 24 -14 29 -14 6 0 1 6 -9 14 -11 8 -24 15 -30 15
-5 0 -1 -7 10 -15z"/>
<path d="M4332 9070 c0 -14 2 -19 5 -12 2 6 2 18 0 25 -3 6 -5 1 -5 -13z"/>
<path d="M5946 7835 c-72 -25 -86 -49 -91 -150 -4 -89 7 -153 29 -167 8 -5 7
-13 -2 -29 -8 -12 -10 -19 -5 -17 4 2 38 19 75 37 58 28 79 33 150 34 95 2
169 -19 232 -64 25 -18 43 -26 49 -20 6 6 21 5 39 -5 21 -11 33 -12 48 -4 11
6 20 8 20 4 0 -3 6 -1 14 5 10 9 16 8 26 -4 20 -24 30 -18 30 20 0 45 -30 120
-80 199 -72 114 -126 143 -303 162 -162 17 -182 17 -231 -1z"/>
<path d="M6385 7441 c-3 -5 -2 -12 3 -15 5 -3 9 1 9 9 0 17 -3 19 -12 6z"/>
<path d="M4614 7396 c-116 -54 -205 -222 -175 -332 16 -58 59 -119 103 -144
44 -25 166 -49 247 -50 70 0 126 27 181 87 51 57 60 79 60 151 0 108 -82 236
-183 286 -69 35 -161 36 -233 2z m104 -177 c3 -19 -27 -34 -40 -21 -13 13 2
43 21 40 9 -2 17 -10 19 -19z m177 -289 c3 -5 1 -10 -4 -10 -6 0 -11 5 -11 10
0 6 2 10 4 10 3 0 8 -4 11 -10z"/>
<path d="M6002 7384 c-59 -29 -111 -87 -144 -160 -17 -37 -22 -67 -21 -124 1
-109 36 -175 114 -215 27 -15 48 -17 119 -11 94 7 183 27 209 48 9 8 27 19 41
26 14 7 36 29 50 49 21 31 25 47 24 112 0 89 -28 153 -94 221 -82 83 -197 104
-298 54z m133 -165 c0 -20 -5 -24 -29 -24 -39 0 -59 31 -33 50 27 19 62 4 62
-26z m-169 -76 c-10 -10 -19 5 -10 18 6 11 8 11 12 0 2 -7 1 -15 -2 -18z"/>
<path d="M7287 7238 c-48 -35 -187 -258 -187 -299 0 -15 8 -7 121 132 81 100
98 126 105 165 5 29 -2 30 -39 2z"/>
<path d="M5135 6625 c-27 -8 -57 -12 -66 -9 -10 3 -22 -10 -38 -41 -12 -24
-35 -54 -51 -65 -38 -27 -101 -27 -126 1 -33 37 -72 50 -144 50 -106 1 -150
-20 -150 -70 0 -20 11 -32 42 -51 35 -21 48 -40 89 -127 83 -178 182 -309 294
-388 139 -99 257 -136 435 -137 290 -2 472 118 665 437 52 86 92 135 110 135
16 0 96 81 106 108 12 32 -5 70 -36 78 -36 9 -112 -1 -132 -17 -9 -8 -24 -32
-34 -54 -25 -57 -55 -82 -140 -116 -145 -59 -357 -89 -427 -60 -41 17 -35 25
68 85 82 48 144 96 160 126 9 17 3 18 -90 13 -120 -7 -193 6 -303 54 -62 26
-182 68 -182 62 0 0 -22 -7 -50 -14z m875 -315 c0 -5 -12 -21 -27 -35 -107
-99 -444 -156 -743 -126 l-65 6 49 8 c26 5 80 10 120 12 39 2 98 8 131 14 121
21 228 41 244 45 20 6 79 18 106 20 60 7 138 32 148 48 12 19 37 25 37 8z
m-45 -10 c-3 -5 -12 -10 -18 -10 -7 0 -6 4 3 10 19 12 23 12 15 0z m-1005 -90
c0 -5 -2 -10 -4 -10 -3 0 -8 5 -11 10 -3 6 -1 10 4 10 6 0 11 -4 11 -10z m108
-27 c-10 -2 -26 -2 -35 0 -10 3 -2 5 17 5 19 0 27 -2 18 -5z m79 -19 c-3 -3
-12 -4 -19 -1 -8 3 -5 6 6 6 11 1 17 -2 13 -5z"/>
<path d="M8425 4281 c-6 -21 1 -181 12 -240 4 -21 13 -35 25 -39 11 -3 17 -10
14 -18 -7 -18 4 -18 69 1 67 20 82 36 55 60 -13 12 -27 15 -45 11 -21 -5 -25
-3 -25 14 0 11 -7 20 -15 20 -13 0 -55 33 -55 44 0 2 23 -1 52 -6 45 -8 54 -7
65 8 23 32 16 78 -17 107 -16 15 -34 27 -40 27 -5 0 -10 4 -10 9 0 6 -8 10
-17 10 -10 -1 -28 2 -40 6 -16 5 -23 2 -28 -14z"/>
<path d="M6990 3998 c0 -10 50 -31 57 -24 3 3 2 9 -1 14 -8 13 -56 22 -56 10z"/>
<path d="M7511 3876 c10 -8 119 -14 114 -5 -4 5 -31 9 -62 9 -31 0 -54 -2 -52
-4z"/>
<path d="M7748 3863 c39 -2 105 -2 145 0 39 1 7 3 -73 3 -80 0 -112 -2 -72 -3z"/>
<path d="M7271 4222 c0 -12 -8 -34 -17 -48 -15 -22 -15 -24 0 -18 18 7 30 43
23 71 -4 14 -5 13 -6 -5z"/>
<path d="M3670 3940 c-13 -9 -13 -10 0 -10 8 0 22 5 30 10 13 9 13 10 0 10 -8
0 -22 -5 -30 -10z"/>
<path d="M3865 1252 c-3 -3 -5 -27 -5 -54 l0 -48 160 0 160 0 0 44 c0 25 -6
48 -12 53 -14 9 -294 13 -303 5z"/>
</g>
</svg>
